<svg width="165" height="37" viewBox="0 0 165 37" fill="none" xmlns="http://www.w3.org/2000/svg">
<path d="M47.8478 35.9873C47.6535 36.115 47.3945 36.3065 47.2649 36.4341C47.1354 36.6256 46.6821 36.7533 46.7469 36.6256C46.8116 36.498 47.0707 36.2426 47.1354 36.115C47.2002 36.0512 46.8764 35.8597 46.8764 35.732H46.7469L46.6173 35.6044C46.4878 35.4129 46.3583 35.2214 46.2936 35.1576C46.2288 35.0938 46.0345 35.2852 45.9698 35.4129V35.5406V35.6044C45.9698 35.6682 45.9698 35.8597 45.8402 36.0512C45.7755 36.2426 45.7107 36.6894 45.7107 36.7533C45.646 36.7533 45.5812 36.7533 45.5164 36.6894C45.4517 36.6256 45.3222 36.4341 45.1926 36.3703C45.1279 36.3065 45.5164 36.115 45.5164 36.0512C45.5812 35.9873 45.5812 35.8597 45.3869 35.9873C45.2574 36.0512 44.8041 35.7959 44.7393 35.8597C44.6746 35.8597 44.7393 36.1788 44.8041 36.2426V36.3065V36.3703C44.8041 36.4341 44.6098 36.498 44.3508 36.498H44.1565H44.0917C44.0917 36.6894 43.9622 36.8171 43.9622 36.8171C43.8975 36.8171 43.6384 36.8171 43.4441 36.8171L43.3794 36.6256C43.5737 36.6256 43.7032 36.498 43.6384 36.4341C43.6384 36.3703 43.4441 36.1788 43.3146 36.3065C43.1851 36.4341 42.7965 36.6894 42.667 36.6894C42.5375 36.6894 42.0842 36.6894 42.0194 36.6894C42.0194 36.6894 42.0842 36.6256 42.2137 36.6256C42.3432 36.6256 42.667 36.498 42.667 36.3703C42.667 36.2426 43.1203 36.115 43.2499 36.115C43.3146 36.115 43.5737 35.9873 43.6384 35.9873V35.9235C43.6384 35.8597 43.5737 35.7959 43.5089 35.7959C43.0556 35.9235 42.6023 36.0512 42.1489 36.0512H41.8251C41.6956 36.2426 41.5014 36.4341 41.3718 36.498C41.3071 36.5618 41.1128 36.3065 41.1128 36.3065C41.048 36.3065 40.8538 36.1788 40.789 36.1788C40.7242 36.115 40.4652 35.9873 40.53 35.9873C40.5947 35.9235 40.789 35.8597 40.8538 35.9235V35.9873L40.9833 36.2426C41.2423 36.1788 41.5014 36.1788 41.5014 36.115C41.5661 36.115 41.6309 35.9235 41.6309 35.8597C41.6309 35.7959 41.3071 35.6044 41.1776 35.6044C41.048 35.1576 40.789 35.4129 40.7242 35.5406C40.5947 35.8597 40.2709 35.8597 40.0766 35.9873L39.8824 36.115C39.7528 36.3065 39.6233 36.3703 39.6233 36.2426V36.1788V36.0512C39.4291 35.9873 39.1053 35.7959 38.911 35.732L38.8462 35.6044C38.7815 35.3491 38.5872 35.3491 38.2634 35.3491C38.1339 35.3491 38.0043 35.2214 37.9396 35.2214C37.8748 35.2214 37.8101 35.4129 37.7453 35.4767C37.6158 35.4767 37.6158 35.5406 37.7453 35.6044C37.8748 35.6682 38.0043 35.8597 37.9396 35.9235C37.8748 35.9873 37.2272 35.732 37.292 35.6682L37.3567 35.6044C37.4863 35.3491 37.292 35.2214 37.033 35.3491C36.7739 35.4129 36.7092 35.2853 36.5796 35.2214H36.3854C36.1911 35.2214 35.7378 35.2853 35.4787 35.3491L35.2844 35.0938L35.0902 35.0299C34.8959 35.0299 34.6368 35.0938 34.5073 35.1576C34.3778 35.2214 33.8597 35.0299 33.7302 35.0299C33.6007 35.0299 33.3417 35.0299 33.2121 35.0299C33.0826 35.0299 32.6293 34.9661 32.4998 35.0938C32.3703 35.2214 31.8522 35.2853 31.6579 35.0938L31.3341 35.1576L31.1398 35.2214C30.8808 35.2214 30.557 35.1576 30.298 35.1576C30.1037 35.1576 29.4561 35.2853 29.1971 35.3491C28.938 35.4129 28.0961 35.2852 27.8371 35.2852L27.5133 35.1576L27.1895 35.0938C26.801 35.1576 26.3476 35.2852 26.2829 35.2852C26.2181 35.2852 25.8296 35.2852 25.6353 35.2852C25.441 35.2852 24.9229 35.3491 24.8582 35.3491C24.8582 35.2853 24.7287 35.2214 24.6639 35.2852C24.5991 35.3491 24.3401 35.4129 24.2753 35.3491L24.2106 35.2852L24.1458 35.2214C24.0811 35.2214 23.9515 35.2214 23.8868 35.2852C23.822 35.3491 23.6925 35.4129 23.6277 35.3491C23.563 35.2853 23.3039 35.4129 23.3039 35.4129C23.2392 35.4129 22.9801 35.4767 22.7211 35.5406L22.4621 35.4767C22.3326 35.4129 22.203 35.4129 22.0735 35.3491C21.944 35.2853 21.8145 35.0938 21.5554 35.2852C21.5554 35.2852 21.4259 35.2853 21.3612 35.2214C21.1021 35.0299 21.0374 34.9661 20.7783 35.2852L20.584 35.4767C20.4545 35.2214 20.325 35.0299 20.2603 35.0938C20.1955 35.1576 20.0012 35.2853 20.0012 35.2214C19.9365 35.1576 19.8069 34.9661 19.6774 34.9661C19.5479 34.9661 19.2889 35.1576 19.2241 35.2214C19.1593 35.2853 18.9651 35.1576 18.9003 35.2214C18.9003 35.2853 18.8355 35.2852 18.8355 35.1576C18.8355 35.0299 18.447 35.2214 18.447 35.2852C18.1879 35.3491 18.1879 34.9661 17.8642 35.0938L17.6699 35.1576C17.4108 35.1576 17.1518 35.1576 17.087 35.1576C17.0223 35.1576 16.7632 35.2214 16.569 35.2214C16.3747 35.2214 15.9214 35.0938 15.7918 35.2214L15.6623 35.2852L15.5976 35.3491C15.4681 35.3491 15.2738 35.2214 15.1443 35.1576C15.0147 35.0938 14.3671 35.2853 14.3024 35.2214C14.2376 35.1576 13.9786 35.0299 13.9138 35.0938C13.8491 35.1576 13.5253 35.0299 13.5253 35.0299L13.4605 35.0938C13.3957 35.1576 13.3957 35.2214 13.331 35.2214C13.2015 35.2214 12.9424 35.2853 12.9424 35.0938V35.0299C13.1367 34.9661 13.2015 34.8385 13.1367 34.8385C13.072 34.7746 12.8129 34.7746 12.7482 34.8385C12.6834 34.9023 12.4244 35.0938 12.4244 34.9023V34.8385C12.4244 34.7746 12.3596 34.7108 12.3596 34.7108H12.2301C12.1006 34.7108 11.971 34.647 12.0358 34.5193L11.7768 34.5832H11.712C11.6472 34.647 11.5177 34.647 11.3234 34.5832C11.1939 34.4555 10.5463 34.4555 10.4168 34.4555C10.2225 34.4555 9.70446 34.264 9.51018 34.264C9.38066 34.264 8.99211 34.3278 8.92735 34.2002C8.86259 34.0725 8.21499 33.9449 8.15023 34.0087L7.76168 33.6258C7.17884 33.5619 6.72552 33.4981 6.66077 33.4981C6.59601 33.4981 6.33697 33.4981 6.14269 33.4981C5.94841 33.4981 5.10654 33.5619 4.78274 33.5619L4.71798 33.179C4.71798 33.1151 4.58846 33.0513 4.5237 33.1151L4.32942 33.179C4.13515 33.1151 3.87611 32.9875 3.87611 32.9237C3.81135 32.8598 3.48755 32.7322 3.35803 32.7322C3.22851 32.6684 2.90472 32.5407 2.83996 32.6045C2.7752 32.6045 2.64568 32.6045 2.58092 32.4769V32.413C2.51616 32.3492 2.38664 32.3492 2.32188 32.413C2.06284 32.5407 1.80381 32.5407 1.67429 32.5407C1.28573 32.5407 1.48001 32.413 1.48001 32.2854C1.48001 32.2216 1.28573 32.0939 1.54477 32.0939C1.67429 32.0939 1.80381 32.0301 1.93332 31.9663C2.06284 31.9024 2.06284 31.8386 1.93332 31.7748L1.80381 31.711C1.93332 31.6471 2.1276 31.4556 2.32188 31.328C2.4514 31.2003 2.64568 30.7535 2.51616 30.6897H2.38664H2.25712C2.1276 30.7535 1.86856 30.7535 1.73905 30.6897C1.60953 30.6259 1.60953 30.0515 1.67429 29.86C1.73905 29.6685 1.86856 29.0302 1.80381 29.0302C1.80381 29.0302 1.60953 29.0941 1.48001 29.2217L1.28573 29.0302L1.22097 28.9026C1.28573 28.7749 1.35049 28.6473 1.41525 28.5196L1.28573 28.4558H1.22097C1.02669 28.5196 0.897173 28.5196 0.961933 28.392V28.3281V28.0728C0.832414 27.8175 0.702895 27.4984 0.702895 27.4346C0.702895 27.3069 0.897173 26.9239 1.15621 26.8601C1.41525 26.7325 1.41525 26.158 1.22097 26.2219L1.09145 26.2857L0.961933 26.3495C0.832414 26.4133 0.573376 26.2857 0.379097 26.0942L0.443857 25.9027C0.443857 25.8389 0.443857 25.7751 0.508616 25.7112C0.638135 25.5198 0.767654 25.3921 0.897173 25.2645C1.02669 25.1368 1.15621 25.4559 1.28573 25.2645V25.2006C1.41525 25.2006 1.41525 25.1368 1.22097 25.073V25.0091C1.22097 24.9453 1.28573 24.8177 1.35049 24.7538C1.41525 24.69 1.48001 24.69 1.54477 24.69C1.80381 24.5624 1.80381 24.2432 1.67429 24.2432C1.48001 24.1794 1.41525 24.1156 1.35049 23.9879L1.28573 23.9241C1.02669 23.9241 1.02669 23.7964 1.35049 23.7326C1.67429 23.6688 2.4514 23.2858 2.83996 23.4773L3.29327 23.4135C3.35803 23.4135 3.55231 23.5411 3.61707 23.6688L3.68183 23.9241C3.87611 23.8603 4.00563 23.6688 3.94087 23.5411V23.4135C4.00563 23.0943 4.07039 22.7752 4.13515 22.4561V22.3922C4.39418 22.3284 4.5237 22.2008 4.58846 22.2008C4.65322 22.2008 4.8475 22.0093 4.91226 22.0093C5.04178 22.0093 5.36558 21.9455 5.43034 21.9455C5.49509 21.9455 5.62461 21.8178 5.68937 21.754C5.75413 21.6902 6.01317 21.8816 6.01317 21.9455C6.07793 21.9455 6.27221 22.0093 6.27221 21.8816C6.27221 21.754 6.46649 21.4987 6.59601 21.6263C6.72552 21.6902 7.11408 21.5625 7.11408 21.4987C7.11408 21.4987 7.04932 21.371 7.17884 21.3072H7.2436C7.43788 21.371 7.69692 21.6263 7.76168 21.2434C7.82644 21.2434 7.95595 21.2434 8.08547 21.3072C8.21499 21.371 8.60355 21.1795 8.73307 21.1795C8.86259 21.1795 9.18638 21.1795 9.38066 21.1795C9.57494 21.1795 9.89874 20.9242 9.76922 20.8604C9.6397 20.7966 9.38066 20.5413 9.44542 20.3498C9.51018 20.1583 8.79783 19.6477 8.86259 19.6477C8.92735 19.6477 8.99211 19.4562 8.79783 19.3286V19.2009V18.9456C8.60355 18.9456 8.40927 18.8818 8.27975 18.8179L8.21499 18.7541L8.08547 18.5626C8.15023 18.3712 8.15023 18.052 8.08547 17.8605L8.02071 17.6691V17.6052C8.02071 17.5414 8.21499 17.5414 8.40927 17.6691C8.60355 17.7967 9.18638 17.6052 9.18638 17.5414C9.18638 17.4776 9.12162 17.3499 8.99211 17.3499H8.92735L8.79783 17.4138C8.60355 17.4776 8.53879 17.4776 8.53879 17.4138V17.3499V17.2861C8.53879 17.2223 8.53879 17.1585 8.47403 17.1585C8.40927 17.1585 8.21499 17.2223 8.15023 17.1585C8.02071 17.1585 8.21499 16.7755 8.34451 16.584L8.60355 16.5202C8.66831 16.5202 8.73307 16.5202 8.73307 16.4564L8.66831 16.0096C9.12162 15.8181 9.3159 15.6904 9.25114 15.6266C9.12162 15.5628 8.73307 15.6266 8.66831 15.6266C8.60355 15.6266 8.08547 15.4351 7.69692 15.3075L7.30836 15.3713C7.11408 15.3713 7.11408 15.3075 7.04932 15.1798L7.11408 14.9883C6.98456 15.116 6.79028 15.1798 6.59601 15.116C6.40173 15.0522 5.88365 14.8607 5.81889 14.7969L5.94841 14.6054C5.88365 14.4139 5.75413 14.2863 5.68937 14.2224C5.62461 14.1586 5.49509 14.1586 5.49509 14.1586L5.43034 14.2224L5.36558 14.2863C5.30082 14.3501 5.10654 14.4139 4.97702 14.4139C4.8475 14.4777 4.39418 14.5416 4.32942 14.4777C4.26466 14.4139 4.13515 14.1586 4.19991 14.0948C4.26466 13.9671 4.78274 14.1586 4.97702 14.1586V14.0309C5.04178 13.9033 4.91226 13.648 4.8475 13.648L3.94087 13.5842C4.07039 13.0735 4.07039 12.6268 3.94087 12.6268C3.81135 12.6268 3.55231 12.8182 3.55231 12.8182C3.48755 12.8182 3.42279 12.6906 3.42279 12.6906C3.42279 12.6906 3.35803 12.5629 3.29327 12.4353C3.22851 12.3076 3.42279 11.9885 3.48755 11.8608V11.797V11.7332C3.48755 11.6694 3.35803 11.6055 3.29327 11.6055H3.22851H3.16375C3.09899 11.6055 3.03424 11.6055 2.96948 11.5417L3.09899 11.414C3.29327 11.2226 3.29327 11.0949 3.03424 11.1587H2.90472H2.64568C2.32188 11.1587 2.1276 11.0949 2.06284 10.9673V10.9034L2.1276 10.2652C1.80381 10.0099 1.48001 9.75455 1.41525 9.69072V9.6269L1.35049 9.49924C1.35049 9.30776 1.28573 9.05246 1.22097 8.86098L1.09145 8.79715C0.638135 8.86098 0.638135 8.6695 0.702895 8.41419V8.35036C0.702895 8.15888 0.508616 8.09506 0.249579 8.22271L0.379097 7.9674C0.508616 7.77592 0.249579 7.77592 0.184819 7.7121C0.184819 7.7121 -0.00945929 7.9674 -0.0742188 7.7121V7.64827C0.0553002 7.58444 0.184819 7.52062 0.184819 7.52062C0.184819 7.52062 0.12006 7.26531 -0.00945929 7.07383L0.0553002 6.81852C0.0553002 6.75469 0.12006 6.69087 0.12006 6.62704V6.56321C0.0553002 6.49939 0.0553002 6.43556 0.12006 6.43556C0.184819 6.43556 0.508616 6.43556 0.573376 6.30791C0.702895 6.18025 0.508616 5.86112 0.573376 5.79729C0.832414 5.98877 1.02669 5.98877 1.22097 5.73347L1.41525 5.54199C1.67429 5.73347 1.86856 5.73347 1.86856 5.66964C1.86856 5.60581 2.19236 5.35051 2.4514 5.22285L2.64568 5.54199L2.7752 5.73347C3.09899 5.60581 3.29327 5.41433 3.22851 5.41433C3.16375 5.41433 3.03424 5.28668 3.03424 5.28668C3.16375 5.28668 3.29327 5.28668 3.42279 5.35051H3.48755C3.55231 5.35051 3.61707 5.35051 3.68183 5.28668C3.74659 5.22285 3.94087 5.28668 3.94087 5.22285C3.94087 5.15903 4.07039 5.03137 4.13515 5.15903C4.26466 5.0952 4.5237 5.22285 4.65322 5.03137L4.78274 4.90372L4.8475 4.83989C4.97702 4.83989 5.1713 4.83989 5.30082 4.90372C5.43034 4.96755 6.01317 4.83989 6.07793 4.90372C6.20745 4.96755 6.53125 5.0952 6.59601 4.90372L6.72552 4.77607L6.85504 4.64841C7.04932 4.64841 7.30836 4.64841 7.37312 4.71224C7.50264 4.77607 7.69692 4.52076 7.82644 4.52076C7.95595 4.52076 8.27975 4.58459 8.34451 4.64841C8.40927 4.71224 8.60355 4.71224 8.66831 4.64841C8.73307 4.52076 8.92735 4.26545 9.05686 4.32928C9.18638 4.39311 9.44542 4.32928 9.57494 4.26545C9.6397 4.20162 9.9635 4.32928 9.9635 4.32928V4.26545V4.1378C10.093 4.1378 10.3521 4.26545 10.6111 4.32928V4.01014C10.6759 4.01014 10.9349 3.94632 11.1292 3.88249C11.3882 3.81866 12.2301 3.94632 12.4244 3.94632L12.5539 4.01014C12.8777 4.01014 12.9424 4.20162 12.9424 3.94632L13.1367 3.88249C13.331 4.1378 13.6548 3.94632 13.6548 3.88249C13.8491 3.69101 14.1081 3.94632 14.2376 3.75484L14.3024 3.69101C14.6262 3.75484 14.8852 3.88249 14.95 3.88249C15.0147 3.88249 15.209 3.75484 15.4033 3.62718C15.5976 3.49953 16.1804 3.75484 16.1804 3.69101V3.37188C16.4394 3.4357 16.8928 3.4357 17.087 3.30805L17.2813 3.56336L17.4756 3.62718C17.6699 3.56336 17.9289 3.4357 18.0584 3.37188H18.1879H18.2527C18.3175 3.37188 18.447 3.37188 18.5765 3.37188C18.706 3.37188 19.2241 3.37188 19.3536 3.37188C19.4831 3.37188 19.8717 3.24422 19.8717 3.30805C19.9365 3.37188 20.066 3.4357 20.066 3.37188L20.1307 3.30805L20.1955 3.24422C20.2603 3.1804 20.2603 3.1804 20.325 3.24422C20.325 3.30805 20.3898 3.37188 20.4545 3.4357H20.5193L20.7136 3.30805C20.9726 3.24422 21.2964 3.1804 21.3612 3.1804V3.11657L21.6202 2.86126C21.8145 3.11657 22.0088 3.24422 22.0735 3.1804C22.1383 3.11657 22.2678 2.98892 22.3326 2.98892C22.3973 3.05274 22.4621 2.86126 22.5268 2.60596L22.9154 2.92509L22.9801 2.98892C23.1744 2.92509 23.4335 2.92509 23.563 2.92509C23.6925 2.92509 23.9515 2.98892 23.9515 2.92509C23.9515 2.86126 24.3401 2.86126 24.4049 2.86126C24.4696 2.92509 24.5991 2.79744 24.5344 2.54213L24.9229 2.86126C24.9877 2.86126 25.182 2.79744 25.3115 2.73361H25.3762C25.441 2.66978 25.7648 2.60596 26.0238 2.54213C26.3476 2.4783 27.06 2.79744 27.1248 2.79744C27.1895 2.79744 27.5781 2.73361 27.8371 2.66978C28.0961 2.60596 29.0028 2.66978 29.1971 2.66978L29.2618 2.60596L29.5209 2.54213C29.7151 2.60596 29.9094 2.66978 30.0389 2.73361H30.1684H30.3627C30.557 2.66978 30.816 2.54213 30.9456 2.54213C31.0751 2.54213 31.5932 2.4783 31.8522 2.4783H32.1112H32.176C32.2407 2.41448 32.3703 2.4783 32.3703 2.54213C32.3703 2.60596 32.6941 2.54213 32.7588 2.54213C32.8236 2.4783 33.0179 2.41448 33.0826 2.41448C33.1474 2.4783 33.4064 2.54213 33.4712 2.54213C33.6007 2.4783 33.9893 2.35065 34.1835 2.35065H34.3131C34.4426 2.54213 34.6368 2.15917 34.7664 2.41448L34.8311 2.54213C35.0902 2.41448 35.3492 2.41448 35.414 2.41448C35.4787 2.4783 35.673 2.54213 35.7378 2.54213C35.7378 2.4783 35.8673 2.41448 35.8673 2.41448C35.932 2.41448 36.0616 2.41448 36.1263 2.35065C36.1911 2.28682 36.7092 2.28682 37.0977 2.223L37.4863 2.35065C37.8101 2.41448 38.1986 2.4783 38.5872 2.223L38.7815 2.09534C39.1053 2.15917 39.4291 2.223 39.4291 2.28682C39.4938 2.35065 39.6881 2.35065 39.7528 2.223C39.8824 2.09534 40.3357 2.35065 40.3357 2.28682C40.3357 2.223 40.4652 2.09534 40.53 2.223C40.53 2.28682 40.6595 2.41448 40.7242 2.28682C40.789 2.15917 41.3071 2.35065 41.5661 2.28682L41.8251 2.35065L42.0842 2.28682C42.4727 2.15917 42.8613 2.09534 42.9261 2.09534C42.9261 2.15917 43.0556 2.223 43.1203 2.15917C43.1851 2.09534 43.3146 1.96769 43.3794 1.96769L43.6384 2.15917C43.9622 2.15917 44.4155 2.09534 44.6098 2.15917C44.8041 2.15917 45.5164 2.09534 45.646 2.223L45.8402 2.03152C45.8402 1.96769 46.0993 2.09534 46.2288 2.09534H46.6173C47.0707 2.09534 47.7183 2.03151 47.9773 1.96769L48.2363 2.223L48.3011 2.28682C48.4306 2.28682 48.6897 2.223 48.8192 2.223C48.9487 2.223 49.2725 2.28682 49.2725 2.223C49.2725 2.15917 49.7258 2.15917 49.8553 2.35065L50.1144 2.15917L50.1791 2.09534C50.3734 2.15917 50.6324 2.15917 50.762 2.15917C50.8267 2.15917 51.2153 2.223 51.3448 2.223H51.4743C51.5391 2.223 51.6686 2.223 51.7333 2.223C51.7981 2.223 51.9276 2.15917 51.9924 2.15917H52.0571C52.1219 2.15917 52.2514 2.15917 52.3809 2.15917C52.5105 2.09534 52.7695 2.223 52.9638 2.35065V2.09534C53.0285 2.09534 53.4171 2.15917 53.6761 2.28682H53.9352H54.1294C54.3885 2.15917 54.6475 2.09534 54.7123 2.03152C54.777 2.03152 54.9713 2.09534 55.1008 2.28682L55.3599 2.223C55.4894 2.15917 55.7484 2.15917 55.8132 2.223C56.0722 2.28682 56.137 1.90386 56.3313 1.96769L56.5255 2.03152C56.7846 2.03152 57.1084 2.09534 57.2379 2.15917L57.3027 2.09534L57.5617 1.90386C57.8855 2.03152 58.1445 2.09534 58.2093 2.03152C58.2741 1.96769 58.4683 1.90386 58.5331 1.96769C58.5979 2.03151 58.7921 2.223 58.7921 2.223C58.7921 2.223 58.9864 2.15917 59.1159 2.09534C59.2454 2.03151 59.9578 2.03152 60.1521 2.03152C60.3464 2.03152 60.9292 2.03151 61.1235 2.09534C61.3177 2.15917 61.7063 1.96769 61.8358 2.03152L62.2244 1.58473C62.8072 1.71238 63.3253 1.90386 63.4548 1.90386C63.5843 1.90386 63.8434 1.84003 63.8434 1.96769C63.8434 2.09534 64.3614 1.84003 64.491 1.77621C64.6205 1.71238 64.8795 1.77621 65.009 1.77621C65.0738 1.77621 65.3328 1.71238 65.3976 1.77621C65.3976 1.84003 65.5271 1.90386 65.5919 1.90386C65.6566 1.84003 65.9157 1.71238 66.1747 1.71238L66.369 1.77621L66.9518 1.96769L67.0813 1.90386C67.2756 1.77621 67.4051 1.77621 67.4699 1.77621C67.4699 1.84003 67.7289 1.96769 67.8585 2.03152L68.1823 1.77621H68.247C68.3118 1.77621 68.4413 1.84003 68.5061 1.84003C68.5708 1.90386 69.0889 1.84003 69.4127 1.77621L69.5422 1.64855C69.6717 1.71238 69.8012 1.90386 69.7365 2.09534L70.125 1.90386L70.3841 1.77621C70.3841 1.96769 70.3841 2.03152 70.3841 1.90386C70.3841 1.77621 70.8374 1.96769 70.8374 1.96769C70.8374 1.96769 71.0317 1.90386 71.2259 1.90386C71.3555 1.90386 71.9383 2.03151 72.1326 2.09534C72.3269 2.15917 72.6507 1.96769 72.7154 1.96769C72.7802 2.03151 72.9097 2.15917 72.9744 2.15917C72.9744 2.15917 73.0392 2.09534 73.104 2.03152C73.1687 1.96769 73.4925 1.90386 73.622 1.96769H73.7516C73.8163 1.96769 73.9458 1.90386 73.9458 1.90386L74.1401 2.03152C74.3344 1.96769 74.723 1.96769 74.982 2.03152L75.241 2.09534H75.3058C75.4353 2.09534 75.5648 2.03152 75.6296 2.03152C75.6943 1.96769 75.9534 1.96769 76.0829 1.90386C76.1477 1.84003 76.7305 1.96769 76.9895 1.96769H77.2486H77.4428C77.7019 2.03151 77.8962 2.03152 77.9609 2.03152C78.0257 1.96769 78.2847 1.90386 78.479 1.90386L78.6085 1.96769C78.738 2.03151 78.8676 2.223 78.8676 1.90386C78.8676 1.90386 78.9971 1.90386 79.0618 1.90386C79.3856 1.90386 79.7742 2.03151 80.098 1.96769L80.357 1.90386C80.5513 1.96769 80.7456 2.03152 80.8103 2.03152C80.8751 2.03152 81.1341 1.96769 81.2637 1.96769C81.3932 1.90386 82.2351 1.96769 82.4941 2.03152C82.7531 2.09534 83.4007 1.77621 83.5302 1.77621C83.6598 1.77621 84.2426 1.71238 84.4369 1.64855C84.6311 1.58473 85.0845 1.90386 85.0845 1.90386C85.1492 1.90386 85.4083 1.71238 85.5378 1.84003H85.6673C85.7968 1.84003 85.9911 1.71238 86.1206 1.77621L86.3797 1.84003C86.5092 1.71238 86.7035 1.64855 86.7682 1.64855L86.833 1.71238L86.9625 1.77621C87.092 1.84003 87.2215 1.90386 87.2863 1.84003C87.3511 1.77621 87.4806 1.71238 87.5453 1.77621C87.5453 1.84003 87.9339 1.84003 87.9986 1.77621C88.0634 1.71238 88.3224 1.64855 88.3872 1.71238C88.452 1.77621 88.6462 1.96769 88.6462 1.96769C88.8405 1.64855 89.0996 1.90386 89.3586 1.90386H89.4881C89.6824 1.84003 89.8119 1.84003 89.9414 1.84003C90.0062 1.84003 90.2005 1.84003 90.33 1.90386C90.4595 1.96769 91.0423 1.84003 91.2366 1.84003L91.4957 1.77621C91.6252 1.77621 91.8195 1.90386 91.949 1.84003L92.208 1.77621C92.467 1.84003 92.7908 1.84003 92.9851 1.90386H93.1794L93.5032 1.84003C93.8918 1.84003 94.2156 1.77621 94.2803 1.77621C94.3451 1.77621 94.5394 1.90386 94.6041 1.96769C94.6689 2.03151 95.1222 1.90386 95.1869 1.96769C95.2517 2.03151 95.446 2.09534 95.5107 2.09534C95.5107 2.03151 95.3812 1.84003 95.3812 1.84003L95.5755 1.77621C95.6403 1.90386 95.705 2.03151 95.7698 2.09534C95.8345 2.09534 95.9641 2.03152 96.0288 2.03152C96.0936 1.96769 96.2879 1.90386 96.3526 1.96769C96.4174 2.03151 96.6117 1.96769 96.6117 1.77621L96.9354 1.90386C96.8707 2.03152 97.0002 2.09534 97.2592 2.03152C97.4535 1.96769 98.0364 2.223 98.0364 2.223V2.15917V1.90386C98.2306 1.96769 98.4249 2.03151 98.4897 2.09534C98.5544 2.15917 98.684 2.223 98.7487 2.15917C98.7487 2.09534 98.943 1.96769 99.0725 2.03152C99.202 2.09534 99.7849 1.96769 99.9144 1.96769C100.044 1.96769 100.497 2.15917 100.497 2.223C100.497 2.28682 100.951 2.15917 101.015 2.09534C101.08 2.03151 101.404 1.96769 101.469 2.223L101.792 2.15917C102.116 2.09534 101.598 1.90386 101.857 1.90386H102.116C102.375 1.90386 103.023 1.90386 103.541 1.90386H103.994C104.253 1.90386 104.448 1.90386 104.707 1.90386H104.901C105.095 1.96769 105.419 1.84003 105.613 1.71238L105.807 1.96769L105.937 2.09534C105.937 1.96769 106.067 1.77621 106.196 1.71238L106.326 1.84003L106.455 2.03152C106.649 1.96769 106.908 1.90386 107.103 1.90386C107.232 1.90386 107.75 1.77621 107.88 1.71238C108.009 1.64855 108.463 1.84003 108.592 1.84003C108.722 1.84003 109.175 1.90386 109.305 1.90386C109.369 1.84003 109.693 1.77621 109.887 1.71238L110.017 1.64855L110.341 1.5209C110.47 1.71238 110.6 1.77621 110.6 1.71238C110.6 1.64855 110.794 1.45707 110.988 1.5209C111.183 1.58473 111.765 1.71238 111.895 1.71238C112.089 1.71238 112.672 1.45707 112.996 1.45707H113.255C113.514 1.45707 113.773 1.39325 114.097 1.45707H114.291C114.421 1.39325 114.68 1.32942 114.874 1.39325L114.939 1.32942C115.198 1.20177 115.262 1.26559 115.327 1.45707C115.457 1.45707 115.845 1.32942 116.104 1.13794L116.493 1.39325H116.558C116.622 1.39325 116.622 1.32942 116.622 1.26559C116.622 1.13794 117.14 1.26559 117.27 1.32942C117.399 1.39325 117.853 1.32942 117.982 1.32942C118.112 1.32942 118.5 1.20177 118.63 1.20177C118.759 1.20177 119.148 1.07411 119.342 1.13794C119.601 1.13794 120.249 1.13794 120.378 1.13794C120.443 1.20177 120.702 1.32942 120.702 1.26559C120.702 1.20177 120.832 1.13794 120.896 1.26559H120.961L121.091 1.32942C121.22 1.32942 121.609 1.26559 121.868 1.26559L121.997 1.20177L122.192 1.07411C122.321 1.13794 122.515 1.20177 122.58 1.20177C122.645 1.20177 122.839 1.13794 122.904 1.07411C122.969 1.07411 123.357 1.13794 123.552 1.20177C123.746 1.26559 124.329 1.07411 124.393 1.07411C124.458 1.07411 124.717 1.32942 124.717 1.26559C124.717 1.20177 124.912 1.01029 125.106 1.01029H125.235H125.43C125.624 1.07411 125.948 1.13794 126.142 1.13794C126.271 1.13794 126.79 0.94646 126.919 0.94646C127.049 0.94646 127.372 1.01029 127.372 0.94646C127.372 0.882634 127.502 0.691153 127.502 0.691153C127.696 0.882634 127.89 1.07411 128.214 0.818807L128.344 0.75498C128.538 0.818807 128.797 0.818807 128.862 0.818807C128.927 0.818807 129.25 0.882634 129.315 0.882634H129.38L129.574 0.818807C129.833 0.75498 130.157 0.75498 130.351 0.75498H130.546H130.675C130.869 0.627327 131.064 0.5635 131.128 0.627327C131.193 0.691153 131.387 0.818807 131.452 0.75498C131.517 0.691153 131.906 0.5635 131.97 0.627327C132.035 0.691153 132.359 0.818807 132.683 0.818807L132.877 0.882634L133.071 0.94646C133.201 0.882634 133.46 0.818807 133.654 0.818807L133.784 0.75498H133.848C133.978 0.75498 134.302 0.691153 134.625 0.627327L134.949 0.818807L135.144 0.94646C135.467 0.94646 135.726 0.818807 135.726 0.691153C135.726 0.5635 136.115 0.627327 136.244 0.691153C136.309 0.75498 136.698 0.75498 136.827 0.75498C136.957 0.75498 137.281 0.627327 137.281 0.627327C137.281 0.627327 137.41 0.691153 137.475 0.75498C137.54 0.818807 138.058 0.882634 137.993 0.818807C137.928 0.75498 137.928 0.691153 138.187 0.75498L138.446 0.5635C138.576 0.499673 138.9 0.5635 139.094 0.5635H139.288C139.418 0.691153 139.547 0.75498 139.612 0.75498C139.677 0.75498 140 0.75498 140.324 0.818807L140.519 0.5635L140.583 0.499673C140.907 0.627327 141.101 0.627327 141.101 0.5635C141.037 0.499673 141.037 0.308193 141.037 0.308193C141.037 0.308193 141.296 0.244366 141.49 0.244366C141.684 0.244366 142.267 0.37202 142.332 0.37202H142.397L142.591 0.435846C142.85 0.435846 143.109 0.435846 143.238 0.499673C143.368 0.5635 143.757 0.244366 144.016 0.0528859L144.275 0.116713L144.598 0.244366C144.793 0.116713 144.922 -0.0109408 144.987 -0.0109408C144.987 -0.0109408 145.116 -0.0109408 145.181 -0.0747676C145.246 -0.138594 145.57 -0.0109408 145.699 0.0528859C145.764 0.116713 146.153 0.180539 146.088 0.0528859C146.023 -0.0747676 146.412 0.0528859 146.476 -0.0109408C146.541 -0.0109408 146.865 -0.0109408 146.93 0.0528859C147.059 0.116713 147.448 0.116713 147.448 0.116713C147.448 0.0528859 147.772 -0.0109408 148.354 -0.0109408L148.549 0.116713L148.937 0.37202C149.002 0.116713 149.132 0.0528859 149.326 0.180539L149.65 0.0528859C150.038 -0.0747676 150.492 -0.0109408 150.88 0.180539C151.01 0.244366 151.269 0.37202 151.528 0.244366C151.657 0.180539 151.981 0.308193 152.175 0.435846C152.305 0.499673 151.916 0.5635 152.175 0.627327C152.24 0.627327 152.37 0.499673 152.434 0.5635C152.564 0.5635 152.823 0.627327 152.823 0.691153L152.952 0.94646C153.276 1.01029 153.665 1.13794 153.859 1.20177C154.053 1.26559 154.701 1.32942 154.766 1.32942C154.895 1.32942 155.219 1.39325 155.348 1.39325C155.413 1.39325 155.608 1.32942 155.608 1.45707C155.608 1.58473 155.996 1.39325 156.061 1.39325C156.126 1.39325 156.449 1.39325 156.644 1.39325C156.903 1.39325 157.486 1.64855 157.55 1.64855C157.615 1.64855 157.809 1.64855 157.809 1.71238C157.809 1.77621 158.004 1.96769 158.263 1.90386C158.522 1.84003 159.234 2.09534 159.493 2.15917L159.558 2.4783C159.623 2.60596 160.011 2.66978 160.076 2.92509L160.141 3.05274C160.4 3.1804 160.659 3.24422 160.724 3.24422C160.788 3.24422 160.853 3.37188 160.788 3.49953L161.047 3.56336C160.983 3.69101 160.918 3.94632 160.918 4.07397V4.20162L160.983 4.45693C161.047 4.77607 161.177 5.03137 161.242 5.03137H161.306H161.371C161.436 5.03137 161.501 5.03137 161.501 5.0952C161.501 5.15903 161.371 5.22285 161.242 5.28668L161.112 5.35051C161.112 5.35051 161.112 5.41433 161.112 5.47816C161.112 5.47816 161.177 5.47816 161.242 5.47816L161.306 5.41433H161.436C161.565 5.41433 161.695 5.41433 161.695 5.47816C161.695 5.54199 161.824 5.73347 161.954 5.86112L162.083 5.98877L162.148 6.0526C162.148 6.24408 162.019 6.30791 161.824 6.24408C161.63 6.18025 161.177 6.24408 161.306 6.56321C161.501 6.94617 161.501 7.90358 161.371 7.90358C161.177 7.9674 160.788 8.09506 160.853 8.09506C160.918 8.09506 161.112 8.22271 161.242 8.35036L161.306 8.47802C161.501 8.79715 161.565 8.28654 161.76 8.47802L161.824 8.54184C162.019 8.60567 162.148 8.73332 162.083 8.86098C162.019 8.98863 162.213 9.49924 162.278 9.75455L162.148 10.0099C162.019 10.2652 162.278 10.712 162.602 10.712H162.861C163.184 10.7758 163.314 10.8396 163.184 10.8396C163.055 10.8396 162.602 10.9673 162.602 11.0311C162.602 11.0949 162.731 11.414 162.925 11.3502H163.12H163.249C163.379 11.3502 163.508 11.3502 163.638 11.414C163.767 11.414 164.285 11.414 164.48 11.414C164.739 11.414 164.998 11.9247 164.998 11.9885H164.868C164.609 11.9247 164.48 12.1161 164.544 12.3076C164.609 12.4353 164.674 12.5629 164.803 12.6268L165.062 12.7544C165.062 13.0097 165.127 13.1374 165.192 13.0735H165.257C165.321 13.0735 165.451 13.0735 165.516 13.1374C165.58 13.2012 165.58 13.265 165.516 13.3288C165.386 13.4565 165.257 13.5842 164.998 13.5203C164.933 13.5203 164.868 13.5842 164.868 13.648C164.868 13.7118 164.933 13.7756 164.998 13.7756L165.192 13.8395C165.386 13.9033 165.386 14.0309 165.192 14.1586H164.998H164.803C164.544 14.0309 164.35 14.0948 164.35 14.2863L164.285 14.4139L164.221 14.6054C164.026 14.6692 163.702 14.733 163.573 14.733C163.443 14.733 163.443 15.116 163.573 15.3713C163.638 15.5628 163.832 16.2649 163.702 16.3287C163.573 16.3925 163.702 16.7755 163.767 16.8393C163.832 16.9031 163.961 17.1585 163.897 17.1585L163.767 17.2223C163.638 17.2861 163.508 17.0308 163.379 17.2223C163.249 17.2223 163.055 17.1585 162.925 17.0946C162.796 17.0308 162.213 17.1585 162.019 17.1585C161.76 17.2223 161.047 17.0308 160.853 16.9031C160.659 16.8393 159.946 16.9031 159.817 16.8393C159.687 16.8393 159.299 16.6478 159.234 16.7117C159.169 16.7755 159.105 17.0308 159.105 17.1585C159.105 17.2861 159.558 17.3499 159.687 17.3499L159.752 17.4138C159.882 17.4776 159.752 17.7329 160.076 17.6691H160.141C160.205 17.7967 160.4 17.8605 160.529 17.7329V18.052V18.1159C160.724 18.1797 160.983 18.1797 161.177 18.1797L161.242 18.3712V18.4988C161.306 18.6903 161.242 18.7541 161.177 18.6903C161.112 18.6265 160.724 18.6265 160.659 18.6265C160.594 18.6903 160.335 18.7541 160.205 18.6265C160.076 18.5626 159.687 18.2435 159.687 18.3073C159.752 18.4988 159.946 18.6903 159.946 18.8818L159.882 19.0733C159.623 19.3286 159.493 19.52 159.623 19.5839C159.687 19.6477 160.011 19.6477 160.141 19.52L160.205 19.3924L160.27 19.3286C160.27 19.2009 160.335 19.1371 160.335 19.1371L160.529 19.3286C160.724 19.2009 160.983 19.1371 161.047 19.2009C161.112 19.2009 161.112 19.3924 160.853 19.5839L160.983 19.8392L161.047 19.903C161.242 19.8392 161.436 19.9668 161.501 20.2221C161.565 20.4136 161.695 20.6689 161.695 20.6689C161.63 20.7328 161.436 20.7328 161.306 20.6051L161.177 20.5413C161.112 20.5413 160.983 20.6051 160.983 20.6689C160.918 20.7328 160.918 20.9242 160.983 20.9881C161.112 20.9881 161.436 21.1157 161.371 21.1795C161.242 21.2434 160.983 21.4987 161.047 21.5625C161.112 21.6263 161.242 21.8178 161.306 21.754H161.371C161.565 21.6902 161.76 21.8816 161.954 22.2008L162.019 22.3284C161.889 22.4561 161.824 22.5837 161.76 22.6476C161.695 22.6476 161.695 22.7752 161.824 22.839H161.889C162.148 22.839 162.213 22.9029 162.083 23.0943C162.083 23.1582 162.019 23.222 162.019 23.222L162.148 23.2858C162.083 23.4135 161.954 23.4773 161.824 23.4135L161.76 23.2858V23.222C161.436 23.222 161.436 23.2858 161.76 23.4135L161.63 23.6688L161.565 23.7964C161.501 23.9879 161.501 24.1156 161.565 24.1794C161.63 24.2432 161.76 24.4985 161.695 24.6262C161.63 24.7538 161.177 24.8815 161.177 24.9453L161.242 25.0091L161.306 25.1368C161.371 25.3283 161.371 25.3921 161.306 25.3283C161.242 25.2645 160.918 25.2006 160.853 25.2645C160.788 25.3283 160.464 25.2645 160.335 25.2645C160.205 25.2645 159.946 25.3283 160.011 25.3283C160.076 25.3921 160.27 25.5198 160.335 25.5836C160.4 25.6474 160.724 25.5198 160.724 25.5198C160.724 25.5198 160.788 25.5836 160.788 25.7112C160.788 25.8389 161.242 25.7112 161.306 25.7112C161.371 25.7112 161.501 25.7751 161.371 25.8389C161.242 25.9027 160.853 26.0304 160.788 25.9665C160.788 25.9027 160.594 25.8389 160.529 25.8389C160.464 25.8389 160.27 26.158 160.205 26.158C160.141 26.158 159.882 26.2857 159.817 26.4772L159.882 26.6686C159.946 26.8601 160.076 26.9239 160.27 26.9878H160.335C160.4 27.0516 160.4 27.1793 160.27 27.2431C160.141 27.3069 159.817 27.5622 159.752 27.626C159.687 27.6899 159.687 27.8813 159.687 27.8813C159.623 27.8813 159.558 28.009 159.558 28.009C159.558 28.009 159.558 28.1367 159.687 28.2005C159.752 28.2643 159.946 28.5834 159.946 28.7749L159.817 28.9026C159.558 29.1579 159.623 29.3494 160.011 29.477L160.335 29.6047C160.141 29.7962 159.946 30.0515 159.817 30.1791C159.752 30.3068 159.493 30.4344 159.687 30.4344V30.6897V30.8174C159.687 30.945 159.752 31.2003 159.752 31.328L159.882 31.3918L160.011 31.5195C159.946 31.6471 159.882 31.9024 159.817 32.0301L159.946 32.1577L160.27 32.5407C160.011 32.7322 159.752 32.8598 159.752 32.8598C159.752 32.8598 159.946 33.2428 160.27 33.6258L160.529 34.0087L160.594 34.1364C160.464 34.0725 160.335 34.0725 160.27 34.0725C160.27 34.0725 160.141 34.0725 160.011 34.1364C159.946 34.2002 159.623 34.3278 159.558 34.3278C159.493 34.3278 159.169 34.3917 159.04 34.4555L158.91 34.5193L158.716 34.5832C158.522 34.5832 158.004 34.647 157.615 34.7108C157.227 34.8385 155.867 34.9023 155.608 34.9661H155.413H155.219C154.96 35.0299 154.442 35.0938 153.924 35.0938H153.47H153.276C153.082 35.1576 152.758 35.3491 152.564 35.4767L152.37 35.2214C152.37 35.1576 151.981 35.2852 151.981 35.2852C151.851 35.0299 151.657 35.4767 151.528 35.2214L151.463 35.1576C151.204 35.2852 150.945 35.3491 150.815 35.3491L150.621 35.4767C150.362 35.4767 150.038 35.4767 149.909 35.5406C149.779 35.6044 149.326 35.4767 149.261 35.4767C149.132 35.4767 148.614 35.5406 148.354 35.5406C148.095 35.5406 147.318 35.732 147.254 35.6682C147.189 35.6044 146.735 35.7959 146.476 35.8597L146.282 35.7959L146.023 35.732C145.699 35.7959 145.376 35.7959 145.181 35.8597C144.987 35.8597 144.598 35.9873 144.598 35.9235C144.598 35.8597 144.275 35.9235 144.08 36.0512C143.886 36.1788 143.238 35.9873 143.109 36.0512H143.044L142.785 35.9235C142.591 36.0512 142.202 36.115 141.943 36.0512L141.749 36.115L141.555 36.1788C141.36 36.115 140.972 36.0512 140.713 36.115H140.454H140.26C140 36.1788 139.677 36.1788 139.482 36.0512L139.223 36.1788L139.029 36.2426C138.77 36.2426 138.252 36.2427 137.928 36.3065L137.54 36.2426L137.281 36.1788C136.957 36.2427 136.633 36.3703 136.503 36.3703C136.374 36.3703 136.05 36.3065 135.985 36.3065C135.921 36.3703 135.532 36.3065 135.338 36.3065C135.144 36.3065 134.561 36.4341 134.496 36.3703C134.496 36.3065 134.431 36.3065 134.431 36.4341C134.431 36.5618 133.978 36.3065 133.913 36.3065C133.848 36.3065 133.395 36.3065 133.201 36.3703C133.006 36.3703 132.488 36.3065 132.359 36.3703C132.229 36.3703 131.711 36.3065 131.517 36.3065C131.323 36.3065 130.675 36.3065 130.481 36.3065C130.287 36.2427 129.768 36.498 129.704 36.498C129.639 36.498 129.315 36.4341 129.25 36.4341C129.121 36.4341 128.862 36.4341 128.603 36.4341C128.344 36.4341 127.696 36.3703 127.631 36.3703C127.567 36.3703 127.372 36.4341 127.308 36.3703C127.243 36.3065 126.725 36.3703 126.531 36.3703C126.336 36.3703 125.689 36.4341 125.43 36.5618L125.106 36.3703L124.912 36.2426C124.523 36.2426 124.005 36.3065 123.681 36.3703L123.357 36.2426H123.293C123.163 36.3703 122.904 36.4341 122.71 36.3065C122.515 36.1788 121.738 36.3703 121.35 36.4341C120.961 36.498 119.99 36.2426 119.925 36.2426C119.86 36.2426 119.536 36.3065 119.148 36.3065L118.824 36.1788L118.63 36.115C118.5 36.3065 118.306 36.3703 118.177 36.3065C118.047 36.2427 117.658 36.115 117.529 36.1788C117.464 36.2427 117.076 36.4341 117.011 36.3703C116.946 36.3065 116.558 36.1788 116.234 36.1788L116.039 36.2426C115.78 36.3065 115.586 36.3065 115.392 36.2426L115.198 36.115C115.003 36.1788 114.809 36.2426 114.744 36.2426C114.68 36.1788 114.291 36.115 114.226 36.115C114.161 36.115 113.773 36.1788 113.708 36.2426C113.579 36.3065 113.19 36.2426 113.125 36.2426C112.996 36.2426 112.607 36.2426 112.478 36.2426C112.348 36.2426 112.024 36.1788 112.024 36.115C112.024 36.0512 111.96 35.8597 111.895 35.8597C111.83 35.8597 111.701 35.9235 111.701 35.8597C111.701 35.7959 111.442 35.732 111.377 35.7959L111.312 35.9235C111.247 35.9873 111.053 36.0512 110.924 36.115C110.535 36.3065 110.535 36.3065 110.146 36.0512L110.082 35.9873C110.017 35.9235 109.823 35.9873 109.758 36.0512C109.693 36.115 109.305 36.2426 109.175 36.115C109.045 36.0512 108.722 35.8597 108.722 35.9235C108.722 35.9873 108.527 36.2426 108.333 36.2426C108.139 36.2426 107.297 36.1788 106.714 36.3065L106.131 36.115L105.548 36.3703C105.225 36.498 104.966 36.5618 104.901 36.498C104.836 36.4341 104.577 36.5618 104.512 36.5618C104.512 36.5618 104.189 36.6256 103.929 36.5618C103.67 36.5618 102.893 36.4341 102.829 36.4341C102.699 36.4341 102.375 36.5618 102.246 36.6256C102.116 36.6894 101.533 36.6894 101.274 36.8171L100.951 36.5618L100.756 36.4341C100.562 36.498 100.303 36.498 100.173 36.4341C100.044 36.3703 99.6553 36.6256 99.5258 36.6256C99.3963 36.6256 99.0078 36.498 99.0078 36.4341C99.0078 36.3703 98.8135 36.2426 98.6192 36.3703L98.4897 36.498L98.3602 36.6256C98.1659 36.5618 97.9716 36.5618 97.9068 36.5618C97.8421 36.6256 97.583 36.6256 97.583 36.5618C97.583 36.498 97.5183 36.4341 97.4535 36.6894L97.1945 36.5618L97.065 36.498C96.9354 36.5618 96.7412 36.5618 96.6764 36.5618C96.6117 36.5618 96.2231 36.4341 96.1583 36.498C96.0288 36.498 95.6403 36.498 95.5107 36.4341C95.3812 36.3703 94.9927 36.4341 94.7984 36.3703H94.6041C94.5394 36.3703 94.4098 36.4341 94.3451 36.4341C94.2156 36.3065 94.1508 36.4341 94.0213 36.4341C93.9565 36.4341 93.827 36.3703 93.7622 36.3065C93.7622 36.3065 93.6327 36.3703 93.6327 36.4341V36.498C93.6975 36.5618 93.6975 36.5618 93.6975 36.6256C93.6975 36.6256 93.568 36.6256 93.4384 36.6256C93.3737 36.6256 92.9851 36.6256 92.8556 36.6894H92.7261C92.467 36.6894 92.208 36.5618 92.0785 36.6256L91.8195 36.7533C91.6252 36.6894 91.3661 36.6256 91.3014 36.6256C91.1719 36.6256 90.8481 36.7533 90.7833 36.8171C90.7185 36.8809 90.589 36.6256 90.589 36.5618C90.589 36.5618 90.33 36.5618 90.1357 36.5618C89.8767 36.5618 89.0996 36.6894 88.9053 36.6894C88.711 36.6894 88.2577 36.3065 88.1929 36.3703C88.1282 36.4341 87.9986 36.6894 87.6748 36.7533C87.4158 36.7533 86.3797 36.498 85.9263 36.3703L85.5378 36.6894L85.4083 36.7533C85.1492 36.6894 84.8902 36.6256 84.8254 36.6256C84.7607 36.5618 84.5016 36.6256 84.3721 36.6256C84.2426 36.5618 83.854 36.6894 83.7893 36.7533C83.7245 36.7533 83.4007 36.7533 83.1417 36.6894C82.9474 36.6894 82.0408 36.7533 81.6522 36.8171L81.3284 36.6256C81.3284 36.6256 80.5513 36.8171 80.4865 36.8171C80.4218 36.8809 80.4218 36.8809 80.357 36.8809L80.1628 36.9447C79.9685 36.8809 79.839 36.7533 79.839 36.6894C79.839 36.6256 79.7742 36.4341 79.7094 36.4341C79.6447 36.4341 79.4504 36.498 79.5152 36.5618V36.6256V36.6894C79.5152 36.8171 79.3209 36.8809 79.1266 36.8809H78.9323H78.8028C78.6733 36.9447 78.3495 36.9447 78.1552 36.9447C77.9609 36.9447 77.3133 36.8809 77.1838 36.8809C77.0543 36.8809 76.6657 36.8171 76.5362 36.8809C76.4067 36.9447 76.0181 36.8171 75.9534 36.8809H75.8886C75.5648 36.9447 75.3058 36.8809 74.982 36.8171L74.723 36.7533C74.3344 36.7533 73.9458 36.7533 73.8163 36.7533C73.6868 36.7533 73.5573 36.498 73.4278 36.6894L73.363 36.7533L73.2982 36.8171C73.2335 36.8809 73.0392 36.9447 72.8449 37.0086C72.6507 37.0724 72.0031 36.8171 71.8735 36.8171C71.744 36.8171 71.5497 36.8171 71.485 36.8171C71.4202 36.8171 71.0964 36.8171 71.0317 36.8171C70.9669 36.8171 70.5136 36.8171 70.3193 36.8171C70.125 36.8171 69.607 36.6894 69.607 36.6256C69.607 36.5618 69.4774 36.6894 69.3479 36.8809L69.0241 36.6894C68.9594 36.6256 68.7003 36.8809 68.5061 36.8809H68.3118C68.1175 36.8171 67.7937 36.8809 67.5994 37.0724L67.3404 36.8809L67.2109 36.7533C66.9518 36.6894 66.6928 36.6256 66.628 36.6894C66.5633 36.7533 66.369 36.9447 66.3042 36.8171C66.2395 36.7533 65.9804 36.6256 65.8509 36.7533L65.7214 36.8171C65.6566 36.8171 65.4623 36.8171 65.4623 36.8171V36.498C65.1385 36.4341 64.8148 36.4341 64.8148 36.498C64.8148 36.6256 64.6205 36.7533 64.4262 36.7533L64.2967 36.8171C64.1672 36.8171 64.1024 36.9447 64.1024 36.7533C64.1024 36.5618 63.9081 36.5618 63.8434 36.6256C63.5196 36.8171 63.1958 36.6894 62.872 36.7533H62.6129C62.3539 36.8171 62.0949 36.8171 62.0949 36.8171H62.0301L61.7711 36.7533C61.3825 36.6894 61.1882 36.6256 61.3177 36.5618C61.4473 36.498 61.1882 36.3065 61.1882 36.2426C61.1882 36.1788 60.9939 36.115 60.9939 36.2426C60.9939 36.3703 60.8644 36.7533 60.7349 36.6894L60.6702 36.6256L60.6054 36.5618C60.5406 36.4341 60.2816 36.3703 60.1521 36.4341C59.9578 36.498 59.5045 36.5618 59.4397 36.498C59.375 36.3703 59.1159 36.1788 58.9864 36.3065V36.4341V36.7533C58.7921 36.7533 58.4036 36.7533 58.2093 36.6894C58.015 36.6256 57.3674 36.6894 57.3027 36.6894C57.2379 36.6894 57.0436 36.6256 56.9141 36.5618C56.7846 36.498 56.2665 36.5618 56.0722 36.6256L55.9427 36.5618L55.8132 36.498C55.6837 36.3065 55.4894 36.1788 55.3599 36.2426C55.2304 36.3065 54.9066 36.498 54.9066 36.5618V36.6256V36.6894C54.9066 36.7533 54.8418 36.7533 54.777 36.7533C54.7123 36.7533 54.5828 36.6256 54.4532 36.498C54.3885 36.4341 53.9352 36.6256 53.8704 36.6256C53.8056 36.6256 53.5466 36.5618 53.4171 36.5618V36.498L53.3523 36.3065C53.5466 36.3065 53.8056 36.3065 53.9352 36.3065C54.0647 36.3065 54.1294 35.9235 53.9999 35.9235C53.8704 35.9235 53.4171 35.9235 53.4171 36.0512L53.3523 36.1788C53.2876 36.3065 53.1581 36.498 53.0285 36.498C52.7047 36.498 52.9638 36.2426 52.8343 36.115C52.7695 36.115 52.64 36.1788 52.5105 36.3703C52.3809 36.498 51.6686 36.498 51.4743 36.498C51.28 36.498 51.021 36.1788 50.9562 36.3065C50.8915 36.4341 51.3448 36.5618 51.4095 36.5618C51.4095 36.5618 51.4743 36.6894 51.4095 36.7533H51.3448H51.2153C51.0858 36.6894 50.8267 36.5618 50.6324 36.3703L50.5677 35.7959C50.5677 35.732 50.3086 35.6044 50.3086 35.6044C49.7258 35.9873 49.9201 35.5406 49.8553 35.3491C49.7906 35.2853 49.7258 35.3491 49.7258 35.5406C49.7258 35.6682 49.5963 35.9235 49.4668 35.7959C49.3372 35.6682 49.143 36.1788 49.0782 36.2426C49.0135 36.3065 48.8192 36.6256 48.7544 36.6256C48.6897 36.6256 48.2363 36.6256 47.9125 36.6256H47.5887H47.524C47.4592 36.6256 47.3945 36.6256 47.3945 36.5618C47.3945 36.498 47.3945 36.3703 47.3945 36.3065C47.3945 36.2427 47.6535 35.9873 47.783 36.0512H47.9125H48.0421C48.1068 36.115 48.3011 36.1788 48.4954 36.2426H48.6249C48.6897 36.2426 48.8192 36.2427 48.8192 36.1788L48.8839 36.0512C48.9487 35.8597 49.143 35.732 49.2725 35.732L49.3372 35.6682C49.4668 35.5406 49.4668 35.3491 49.5315 35.2852L49.7906 35.0938C49.661 34.9661 49.4668 34.8385 49.402 34.7746C49.3372 34.7746 49.0782 34.8385 49.0782 35.0299C49.0782 35.2214 48.8839 35.732 48.6896 35.732L48.5601 35.8597C48.4306 36.0512 48.3011 36.0512 48.0421 35.9235L47.8478 35.9873ZM49.9201 34.5193C49.7906 34.4555 49.5963 34.4555 49.5963 34.4555C49.5963 34.4555 49.5963 34.5832 49.7258 34.647C49.7906 34.7108 50.3086 34.7746 50.5677 34.647L50.8267 34.8385C50.8267 34.8385 50.9562 34.8385 50.9562 34.7746L51.021 34.7108C51.1505 34.5832 51.1505 34.4555 50.9562 34.4555C50.8267 34.4555 50.1144 34.5832 49.9201 34.5193ZM45.2574 34.8385C45.0631 34.9023 44.9336 35.0299 44.9984 35.1576C45.0631 35.2852 45.5164 35.0299 45.5812 34.9661C45.646 34.9023 46.164 34.9023 46.2936 34.9023C46.4878 34.9023 46.9411 34.8385 46.8764 34.7108C46.8116 34.5832 46.3583 34.7108 46.2288 34.7108C46.0993 34.7108 45.7755 34.7108 45.5812 34.647L45.3869 34.7108L45.2574 34.8385ZM158.198 17.0308C158.392 17.0946 158.457 17.0308 158.392 16.9031C158.327 16.7755 158.004 16.3287 157.874 16.0734L157.615 16.3925L157.421 16.6478C157.227 16.584 157.162 16.5202 157.291 16.584C157.421 16.584 158.004 16.967 158.198 17.0308ZM83.0122 34.9023C82.8179 34.9023 82.5588 34.9661 82.5588 35.0299L82.6236 35.1576C82.5588 35.2852 82.5588 35.4129 82.6884 35.4767C82.7531 35.5406 83.0769 35.3491 83.2712 35.3491C83.336 35.2214 83.2064 34.9023 83.0122 34.9023ZM160.983 16.8393C160.853 16.6478 160.788 16.6478 160.853 16.8393C160.918 17.0308 161.436 17.2223 161.565 17.2223V17.0308V16.967C161.695 16.7755 161.565 16.7755 161.242 16.967L161.112 16.9031L160.983 16.8393ZM43.7679 34.647C43.3794 34.7108 43.1851 34.7746 43.3794 34.8385C43.5737 34.9023 43.9622 35.0299 44.027 35.0938C44.1565 35.1576 44.4803 35.2214 44.4803 35.1576C44.4803 35.0938 44.3508 34.8385 44.1565 34.9023H44.0917L43.7679 34.647ZM59.6988 35.2852C59.634 35.2852 59.634 35.4767 59.7635 35.732L59.9578 35.7959L60.1521 35.9235C60.3464 36.0512 60.6054 36.115 60.7349 36.115L60.7997 36.0512L60.8644 35.9873C60.8644 35.8597 60.6702 35.7959 60.4111 35.7959L60.2816 35.732L60.1521 35.6682C60.0226 35.4767 59.7635 35.2852 59.6988 35.2852ZM112.219 35.2852C112.348 35.2214 112.348 35.1576 112.283 35.0938C112.219 35.0299 111.96 34.8385 111.895 34.7746C111.83 34.7108 111.571 34.7746 111.636 34.9661C111.701 35.0299 112.154 35.2852 112.219 35.2852ZM54.518 35.6044C54.4532 35.4129 54.4532 35.4129 54.518 35.6044C54.518 35.732 54.4532 36.115 54.5828 36.115C54.7123 36.115 54.518 35.7959 54.518 35.6044ZM4.8475 23.8603C4.97702 23.8603 5.04178 23.7964 5.04178 23.6688H4.97702C4.71798 23.6688 4.65322 23.5411 4.65322 23.3496V23.2858C4.58846 23.1582 4.5237 23.222 4.39418 23.3496C4.26467 23.4773 4.71798 23.7964 4.8475 23.8603ZM2.64568 26.9239C2.64568 26.8601 2.51616 26.7963 2.4514 26.7325L2.38664 26.6686C2.32188 26.6048 2.25712 26.541 2.1276 26.6048C1.99808 26.6686 1.93332 26.7325 2.1276 26.8601C2.25712 26.9239 1.99808 27.2431 2.32188 27.2431C2.38664 27.2431 2.51616 27.0516 2.64568 26.9239Z" fill="#FF3D86"/>
</svg>
